<?xml version="1.0" encoding="UTF-8" standalone="no"?>
<svg
   xmlns:dc="http://purl.org/dc/elements/1.1/"
   xmlns:cc="http://creativecommons.org/ns#"
   xmlns:rdf="http://www.w3.org/1999/02/22-rdf-syntax-ns#"
   xmlns:svg="http://www.w3.org/2000/svg"
   xmlns="http://www.w3.org/2000/svg"
   xmlns:sodipodi="http://sodipodi.sourceforge.net/DTD/sodipodi-0.dtd"
   xmlns:inkscape="http://www.inkscape.org/namespaces/inkscape"
   width="32"
   height="32"
   viewBox="0 0 8.4666664 8.4666669"
   version="1.1"
   id="svg1428"
   inkscape:version="1.0.2 (e86c870879, 2021-01-15)"
   sodipodi:docname="talking.svg"
   inkscape:export-xdpi="9.6000004"
   inkscape:export-ydpi="9.6000004">
  <defs
     id="defs1422" />
  <sodipodi:namedview
     id="base"
     pagecolor="#ffffff"
     bordercolor="#666666"
     borderopacity="1.0"
     inkscape:pageopacity="0.0"
     inkscape:pageshadow="2"
     inkscape:zoom="8"
     inkscape:cx="48.313892"
     inkscape:cy="43.165594"
     inkscape:document-units="px"
     inkscape:current-layer="layer1"
     inkscape:document-rotation="0"
     showgrid="false"
     inkscape:window-width="1854"
     inkscape:window-height="1136"
     inkscape:window-x="1920"
     inkscape:window-y="27"
     inkscape:window-maximized="1"
     units="px" />
  <metadata
     id="metadata1425">
    <rdf:RDF>
      <cc:Work
         rdf:about="">
        <dc:format>image/svg+xml</dc:format>
        <dc:type
           rdf:resource="http://purl.org/dc/dcmitype/StillImage" />
        <dc:title />
      </cc:Work>
    </rdf:RDF>
  </metadata>
  <g
     inkscape:label="Calque 1"
     inkscape:groupmode="layer"
     id="layer1">
    <g
       id="g1870"
       transform="translate(0.00198959,0.07950317)">
      <path
         id="rect1227"
         style="fill:#f47825;fill-opacity:1;stroke:#000000;stroke-width:0.264583;stroke-miterlimit:4;stroke-dasharray:none;stroke-opacity:1"
         d="m 2.8259822,0.77565819 c -0.704403,0.00434 -1.3799002,0.11608136 -1.87327066,0.32194421 -0.56545507,0.2359407 -0.59496586,1.6917644 0,1.8381306 0.33220466,0.081725 0.68850956,0.1320225 1.05264886,0.1612305 -0.023993,0.013783 -0.058911,0.03359 -0.058911,0.03359 L 1.2105769,3.9723623 c 0,0 1.1806918,-0.5396352 1.4490072,-0.8474935 0.7888928,0.0076 1.5760208,-0.07262 2.2138182,-0.1891358 0.6027301,-0.1101098 0.5753412,-1.6274413 0,-1.8381306 C 4.2638317,0.87437812 3.5303853,0.77131783 2.8259822,0.77565819 Z" />
      <path
         id="rect1227-3"
         style="fill:#585858;fill-opacity:1;stroke:#000000;stroke-width:0.264583;stroke-miterlimit:4;stroke-dasharray:none;stroke-opacity:1"
         d="m 5.6367053,4.3474023 c 0.704403,0.00434 1.3799002,0.1160814 1.8732706,0.3219442 0.5654551,0.2359407 0.5949659,1.6917644 0,1.8381307 -0.3322046,0.081725 -0.6885095,0.1320224 -1.0526488,0.1612304 0.023993,0.013782 0.058911,0.03359 0.058911,0.03359 l 0.7358724,0.8418088 c 0,0 -1.1806917,-0.5396352 -1.4490071,-0.8474935 -0.7888928,0.0076 -1.5760208,-0.07262 -2.2138182,-0.1891357 -0.6027301,-0.1101098 -0.5753412,-1.6274413 0,-1.8381307 C 4.1988558,4.4461222 4.9323022,4.343062 5.6367053,4.3474023 Z" />
    </g>
  </g>
</svg>
