<?xml version="1.0" encoding="UTF-8" standalone="no"?>
<svg
   xmlns:osb="http://www.openswatchbook.org/uri/2009/osb"
   xmlns:dc="http://purl.org/dc/elements/1.1/"
   xmlns:cc="http://creativecommons.org/ns#"
   xmlns:rdf="http://www.w3.org/1999/02/22-rdf-syntax-ns#"
   xmlns:svg="http://www.w3.org/2000/svg"
   xmlns="http://www.w3.org/2000/svg"
   xmlns:sodipodi="http://sodipodi.sourceforge.net/DTD/sodipodi-0.dtd"
   xmlns:inkscape="http://www.inkscape.org/namespaces/inkscape"
   width="32"
   height="32"
   viewBox="0 0 8.4666664 8.4666669"
   version="1.1"
   id="svg1428"
   inkscape:version="1.0.2 (e86c870879, 2021-01-15)"
   sodipodi:docname="talking-new-window.svg"
   inkscape:export-xdpi="9.6000004"
   inkscape:export-ydpi="9.6000004">
  <defs
     id="defs1422">
    <linearGradient
       id="linearGradient5158"
       osb:paint="solid">
      <stop
         style="stop-color:#7d7d7d;stop-opacity:1;"
         offset="0"
         id="stop5156" />
    </linearGradient>
  </defs>
  <sodipodi:namedview
     id="base"
     pagecolor="#ffffff"
     bordercolor="#666666"
     borderopacity="1.0"
     inkscape:pageopacity="0.0"
     inkscape:pageshadow="2"
     inkscape:zoom="16"
     inkscape:cx="28.541604"
     inkscape:cy="20.583538"
     inkscape:document-units="px"
     inkscape:current-layer="layer1"
     inkscape:document-rotation="0"
     showgrid="false"
     inkscape:window-width="1854"
     inkscape:window-height="1136"
     inkscape:window-x="1920"
     inkscape:window-y="27"
     inkscape:window-maximized="1"
     units="px" />
  <metadata
     id="metadata1425">
    <rdf:RDF>
      <cc:Work
         rdf:about="">
        <dc:format>image/svg+xml</dc:format>
        <dc:type
           rdf:resource="http://purl.org/dc/dcmitype/StillImage" />
        <dc:title></dc:title>
      </cc:Work>
    </rdf:RDF>
  </metadata>
  <g
     inkscape:label="Calque 1"
     inkscape:groupmode="layer"
     id="layer1">
    <g
       id="g1920"
       transform="translate(-0.20777154,0.26436241)">
      <g
         id="g1904">
        <rect
           style="fill:#7d7d7d;stroke:#3a3a3a;stroke-width:0.264583;stroke-opacity:1"
           id="rect1876"
           width="5.250051"
           height="3.5867531"
           x="0.55552566"
           y="4.1129284"
           ry="0.53790849" />
        <path
           sodipodi:type="star"
           style="fill:#ffffff;fill-opacity:1;stroke:#3a3a3a;stroke-width:0.264583;stroke-opacity:1"
           id="path1900"
           sodipodi:sides="3"
           sodipodi:cx="2.865484"
           sodipodi:cy="5.9066768"
           sodipodi:r1="0.99697489"
           sodipodi:r2="0.49848747"
           sodipodi:arg1="2.0949848"
           sodipodi:arg2="3.1421824"
           inkscape:flatsided="false"
           inkscape:rounded="0"
           inkscape:randomized="0"
           d="M 2.3664875,6.7697882 2.3669966,5.9063828 2.3675058,5.0429774 3.1149823,5.475121 3.8624587,5.9072647 3.1144731,6.3385265 Z"
           inkscape:transform-center-x="-0.24898909"
           inkscape:transform-center-y="-0.0002940151" />
      </g>
      <g
         id="g1910">
        <rect
           style="fill:#ffffff;fill-opacity:1;stroke:#3a3a3a;stroke-width:0.319191;stroke-opacity:1"
           id="rect1876-6"
           width="6.3071527"
           height="4.3451805"
           x="1.9922273"
           y="0.26556432"
           ry="0.65165049" />
        <g
           id="g1874"
           transform="matrix(0.55499346,0,0,0.55499346,2.7360875,0.17457966)">
          <path
             id="rect1227"
             style="fill:#f47825;fill-opacity:1;stroke:#000000;stroke-width:0.264583;stroke-miterlimit:4;stroke-dasharray:none;stroke-opacity:1"
             d="m 2.9365203,0.70038946 c -0.704403,0.00434 -1.3799,0.1160814 -1.87327,0.32194424 -0.56545603,0.2359407 -0.59496603,1.6917644 0,1.8381306 0.332204,0.081725 0.688509,0.1320225 1.052648,0.1612305 -0.02399,0.013783 -0.05891,0.03359 -0.05891,0.03359 l -0.735872,0.8418088 c 0,0 1.180692,-0.5396352 1.449007,-0.8474935 0.788893,0.0076 1.576021,-0.07262 2.213818,-0.1891358 0.60273,-0.1101098 0.575341,-1.6274413 0,-1.8381306 -0.60957,-0.22322434 -1.343017,-0.32628464 -2.047421,-0.32194424 z" />
          <path
             id="rect1227-3"
             style="fill:#585858;fill-opacity:1;stroke:#000000;stroke-width:0.264583;stroke-miterlimit:4;stroke-dasharray:none;stroke-opacity:1"
             d="m 5.7472433,4.2721336 c 0.704403,0.00434 1.3799,0.1160814 1.873271,0.3219442 0.565455,0.2359407 0.594966,1.6917644 0,1.8381307 -0.332205,0.081725 -0.68851,0.1320224 -1.052649,0.1612304 0.02399,0.013782 0.05891,0.03359 0.05891,0.03359 l 0.735872,0.8418088 c 0,0 -1.180691,-0.5396352 -1.449007,-0.8474935 -0.788892,0.0076 -1.57602,-0.07262 -2.213818,-0.1891357 -0.60273,-0.1101098 -0.575341,-1.6274413 0,-1.8381307 0.609571,-0.2232243 1.343017,-0.3262845 2.047421,-0.3219442 z" />
        </g>
      </g>
    </g>
  </g>
</svg>
